<svg xmlns="http://www.w3.org/2000/svg" version="1.1" xmlns:xlink="http://www.w3.org/1999/xlink" width="512" height="512" x="0" y="0" viewBox="0 0 500 500" style="enable-background:new 0 0 512 512" xml:space="preserve" class=""><g><path fill-rule="evenodd" d="M257.348 170.408c2.365-15.179 13.312-35.205 25.304-35.845h32.785c-2.366 15.178-13.367 35.205-25.359 35.845zm-.111 77.003c2.42-17.869 15.678-42.275 30.09-43.014h38.671c-2.42 17.858-15.622 42.264-30.09 43.014zm140.712 22.816c11.772 0 23.599.958 35.205 2.823-3.025-89.126-69.476-163.031-157.764-175.219-4.071 9.618-10.507 18.013-18.813 24.049l.055 15.224c7.261-10.131 16.228-15.856 25.579-16.249.11-.009.165-.009.275-.009h40.211c3.685 0 6.766 2.916 6.876 6.612.385 10.269-3.355 23.555-9.737 34.675-7.866 13.715-18.263 21.524-29.319 21.982l-33.775.008.055 27.041c8.471-12.775 19.033-20.018 30.145-20.484h46.317c3.686 0 6.711 2.918 6.821 6.603.44 11.412-3.905 26.785-11.002 39.166-8.856 15.387-20.463 24.159-32.73 24.67-.11 0-.165.009-.275.009h-39.166l.165 60.187c39.441-32.974 89.279-51.088 140.877-51.088zm30.86 49.095c-94.989-17.181-186.011 46.972-201.936 141.825-.11-.017-.22-.028-.385-.045-10.926-1.273-20.976-3.828-31.245-6.859-.11-.028-.165-.056-.275-.082 17.163-97.44 103.361-170.219 202.981-170.219 11.772 0 23.599 1.006 35.151 2.989-.441 11.075-1.926 21.9-4.291 32.391zm-16.888 45.536c-63.311-7.011-121.877 34.427-136.476 95.96-11.752 1.644-23.042 2.119-34.875 1.536 15.041-86.357 97.932-144.779 184.718-129.738-3.41 11.238-7.921 22.029-13.367 32.242zm-121.569 93.235c47.527-10.791 88.234-40.208 113.868-80.113-52.222-2.946-99.293 30.796-113.868 80.113zM68.999 307.89c55.834 12.483 102.041 52.314 123.164 104.903 4.841-12.968 10.947-25.45 18.153-37.264-30.365-53.409-83.338-90.774-143.517-101.335v.109c-.191 11.774.283 21.702 2.2 33.587zm112.932 141.589c-6.782-2.648-16.048-7.113-22.278-10.744-16.718-9.743-32.089-21.74-44.997-36.11-20.408-22.504-35.26-49.956-42.631-79.885 54.513 14.457 98.135 57.454 113.097 112.226-1.211 4.792-2.311 9.631-3.191 14.513zm60.839-202.068h-38.671c-14.467-.75-27.724-25.155-30.09-43.014h38.616c14.468.739 27.725 25.145 30.145 43.014zm-.11-77.003h-32.73c-11.992-.64-22.993-20.667-25.359-35.845h32.785c11.937.639 22.939 20.666 25.304 35.845zm-18.153-72.56c-84.053 11.64-148.248 79.216-156.774 162.584 62.49 10.533 117.883 48.163 150.998 102.35a219.99 219.99 0 0 1 24.644-29.015l-.165-72.641h-39.276c-.11 0-.22-.009-.275-.009-12.267-.511-23.874-9.283-32.73-24.67-7.096-12.381-11.442-27.753-11.002-39.166.11-3.685 3.136-6.603 6.821-6.603h46.317c11.057.466 21.563 7.628 30.035 20.282l-.11-26.838-33.5-.008c-11.057-.458-21.453-8.267-29.319-21.982-6.381-11.12-10.121-24.406-9.737-34.675a6.814 6.814 0 0 1 6.821-6.612h40.266c8.93 0 18.284 6.048 25.359 15.581v-14.904c-8.086-6.007-14.412-14.245-18.373-23.674zm25.469-58.915c21.883 17.482 21.894 53.275 0 70.748-21.894-17.473-21.883-53.266 0-70.748zm146.268 108.485c-30.695-34.043-72.006-56.182-117.003-62.884 3.879-23.609-6.056-47.588-25.634-59.802a6.905 6.905 0 0 0-7.316 0c-19.582 12.217-29.515 36.204-25.634 59.811-44.942 6.73-86.253 28.868-116.948 62.903-31.025 34.365-48.793 78.284-50.553 124.388-.102 5.366-.272 12.849.165 18.116l.275 4.525.385 4.472 1.98 14.465c1.045 6.311 2.475 12.538 4.181 18.673.208 1.529 3.672 11.964 4.401 13.881 1.665 4.381 2.625 7.191 4.566 11.521 8.857 20.583 21.343 39.641 37.076 56.412.989 1.353 8.703 8.783 10.342 10.286 37.193 34.12 84.1 52.131 133.45 52.131 42.671 0 84.239-13.621 118.598-39.649l2.64-2.011c17.713-13.836 33.115-30.697 45.272-49.946l4.071-6.73c16.887-29.088 26.074-62.162 26.404-96.636.238-49.881-17.268-96.898-50.718-133.926z" clip-rule="evenodd" fill="#054593" opacity="1" data-original="#000000"></path></g></svg>